<svg width="45" height="46" viewBox="0 0 45 46" fill="none" xmlns="http://www.w3.org/2000/svg">
<path d="M22.5 17.6422C23.5596 17.6426 24.5953 17.9572 25.4761 18.5461C26.3569 19.1351 27.0433 19.972 27.4485 20.951C27.8538 21.9301 27.9596 23.0073 27.7526 24.0465C27.5457 25.0857 27.0352 26.0402 26.2858 26.7893C25.5364 27.5384 24.5818 28.0484 23.5425 28.255C22.5033 28.4616 21.4261 28.3554 20.4472 27.9498C19.4683 27.5442 18.6316 26.8575 18.043 25.9764C17.4544 25.0954 17.1402 24.0596 17.1402 23C17.1412 21.579 17.7063 20.2165 18.7113 19.2119C19.7163 18.2073 21.079 17.6427 22.5 17.6422ZM9.97333 13.5239C10.2461 12.8327 10.658 12.2048 11.1834 11.6794C11.7089 11.1539 12.3367 10.7421 13.0279 10.4693C15.1373 9.63661 20.1596 9.82344 22.5 9.82344C24.8404 9.82344 29.8577 9.62958 31.9731 10.4693C32.6643 10.7421 33.2921 11.1539 33.8176 11.6794C34.343 12.2048 34.7549 12.8327 35.0277 13.5239C35.8594 15.6333 35.6735 20.6606 35.6735 22.999C35.6735 25.3374 35.8594 30.3587 35.0237 32.4751C34.7509 33.1663 34.339 33.7942 33.8136 34.3196C33.2881 34.8451 32.6603 35.2569 31.9691 35.5297C29.8597 36.3624 24.8374 36.1756 22.496 36.1756C20.1546 36.1756 15.1393 36.3694 13.0239 35.5297C12.3327 35.2569 11.7048 34.8451 11.1794 34.3196C10.6539 33.7942 10.2421 33.1663 9.96931 32.4751C9.13058 30.3657 9.32344 25.3384 9.32344 23C9.32344 20.6616 9.13058 15.6413 9.96931 13.5249L9.97333 13.5239ZM22.5 31.2366C24.129 31.2366 25.7215 30.7535 27.076 29.8485C28.4305 28.9434 29.4862 27.6571 30.1096 26.152C30.733 24.647 30.8962 22.9909 30.5783 21.3931C30.2605 19.7954 29.4761 18.3277 28.3242 17.1758C27.1723 16.0239 25.7046 15.2395 24.1069 14.9217C22.5091 14.6038 20.853 14.767 19.348 15.3904C17.8429 16.0138 16.5566 17.0695 15.6515 18.424C14.7465 19.7785 14.2634 21.371 14.2634 23C14.2621 24.082 14.4742 25.1537 14.8877 26.1536C15.3011 27.1535 15.9078 28.062 16.6729 28.8271C17.438 29.5922 18.3465 30.1989 19.3464 30.6123C20.3463 31.0258 21.418 31.2379 22.5 31.2366ZM13.9239 16.3404C14.3042 16.3406 14.676 16.228 14.9923 16.0169C15.3086 15.8058 15.5551 15.5056 15.7008 15.1543C15.8465 14.803 15.8847 14.4164 15.8106 14.0434C15.7365 13.6704 15.5535 13.3277 15.2847 13.0588C15.0159 12.7898 14.6733 12.6066 14.3003 12.5323C13.9274 12.4581 13.5408 12.4961 13.1894 12.6416C12.838 12.787 12.5377 13.0335 12.3264 13.3496C12.1151 13.6658 12.0023 14.0376 12.0023 14.4179C12.0013 14.6704 12.0501 14.9207 12.146 15.1543C12.2419 15.3879 12.3829 15.6003 12.5611 15.7793C12.7392 15.9583 12.951 16.1003 13.1841 16.1973C13.4173 16.2943 13.6673 16.3443 13.9199 16.3444L13.9239 16.3404ZM4.82143 0.5H40.1786C41.4573 0.5 42.6836 1.00797 43.5878 1.91216C44.492 2.81636 45 4.04271 45 5.32143V40.6786C45 41.9573 44.492 43.1836 43.5878 44.0878C42.6836 44.992 41.4573 45.5 40.1786 45.5H4.82143C3.54271 45.5 2.31636 44.992 1.41216 44.0878C0.507971 43.1836 1.43051e-06 41.9573 1.43051e-06 40.6786V5.32143C1.43051e-06 4.04271 0.507971 2.81636 1.41216 1.91216C2.31636 1.00797 3.54271 0.5 4.82143 0.5ZM6.54107 29.6295C6.67065 32.2039 7.25826 34.485 9.13761 36.3594C11.017 38.2337 13.2961 38.8334 15.8675 38.9559C18.5203 39.1056 26.4737 39.1056 29.1265 38.9559C31.7009 38.8263 33.974 38.2377 35.8564 36.3594C37.7387 34.481 38.3304 32.1989 38.4529 29.6295C38.6026 26.9757 38.6026 19.0213 38.4529 16.3705C38.3233 13.7961 37.7427 11.515 35.8564 9.64062C33.97 7.76629 31.6908 7.17366 29.1265 7.05112C26.4737 6.90145 18.5203 6.90145 15.8675 7.05112C13.2931 7.18069 11.0129 7.76931 9.13761 9.64766C7.26228 11.526 6.66362 13.8081 6.54107 16.3826C6.39141 19.0263 6.39141 26.9737 6.54107 29.6295Z" fill="black"/>
</svg>
