<svg width="45" height="46" viewBox="0 0 45 46" fill="none" xmlns="http://www.w3.org/2000/svg">
<path d="M41.7857 0.5H3.20424C1.43638 0.5 0 1.95647 0 3.74442V42.2556C0 44.0435 1.43638 45.5 3.20424 45.5H41.7857C43.5536 45.5 45 44.0435 45 42.2556V3.74442C45 1.95647 43.5536 0.5 41.7857 0.5ZM13.6004 39.0714H6.9308V17.596H13.6105V39.0714H13.6004ZM10.2656 14.6629C8.12612 14.6629 6.39844 12.9252 6.39844 10.7958C6.39844 8.66629 8.12612 6.92857 10.2656 6.92857C12.3951 6.92857 14.1328 8.66629 14.1328 10.7958C14.1328 12.9353 12.4051 14.6629 10.2656 14.6629ZM38.6016 39.0714H31.9319V28.625C31.9319 26.1339 31.8817 22.9297 28.4665 22.9297C24.9911 22.9297 24.4587 25.6417 24.4587 28.4442V39.0714H17.7891V17.596H24.1875V20.529H24.2779C25.1719 18.8415 27.3516 17.0636 30.596 17.0636C37.346 17.0636 38.6016 21.5134 38.6016 27.2991V39.0714Z" fill="black"/>
</svg>
