<svg width="45" height="46" viewBox="0 0 45 46" fill="none" xmlns="http://www.w3.org/2000/svg">
<path d="M6.42857 45.5C2.88281 45.5 0 42.6172 0 39.0714V6.92857C0 3.38281 2.88281 0.500001 6.42857 0.500001H38.5714C42.1172 0.500001 45 3.38281 45 6.92857V39.0714C45 42.6172 42.1172 45.5 38.5714 45.5H6.42857ZM36.2712 37.0625L25.8449 25.1496L38.1094 8.9375H28.5067L20.9933 18.7712L12.385 8.9375H7.61384L18.7634 21.6842L7.00112 37.0625H16.8449L23.6451 28.0725L31.5 37.0625H36.2712ZM32.4743 11.7902L15.4085 34.3605H12.5658L29.8225 11.7902H32.4643H32.4743Z" fill="black"/>
</svg>
